<?xml version="1.0" encoding="UTF-8" standalone="no"?>
<!-- Created with Inkscape (http://www.inkscape.org/) -->

<svg
   width="102.63105"
   height="121.87835"
   viewBox="0 0 27.154465 32.246979"
   version="1.1"
   id="svg5"
   xml:space="preserve"
   xmlns="http://www.w3.org/2000/svg"
   xmlns:svg="http://www.w3.org/2000/svg"><defs
     id="defs2" /><path
     style="fill:#edffab;fill-opacity:1;stroke-width:0.264583"
     id="path292"
     d="m 4.9092348,13.955354 c 0.27969,0.125146 0.56616,0.234002 0.85252,0.342694 0.44464,0.168971 0.89512,0.32156 1.34612,0.472461 0.46324,0.15437 0.93051,0.296136 1.3945,0.448156 0.47933,0.162711 0.9596,0.322362 1.44144,0.477465 0.0776,0.02484 0.1552802,0.04967 0.2329202,0.07451 0.066,0.03703 0.58962,-0.89563 0.52367,-0.932659 v 0 c -0.0759,-0.02434 -0.15186,-0.04867 -0.2278,-0.07301 -0.4809002,-0.159275 -0.9627102,-0.315791 -1.4428002,-0.47755 -0.46227,-0.149091 -0.92525,-0.29583 -1.38712,-0.446212 -0.44459,-0.14836 -0.89077,-0.291956 -1.33327,-0.44652 -0.27901,-0.09763 -0.55817,-0.195869 -0.83678,-0.293753 -0.0604,-0.03984 -0.62382,0.814583 -0.5634,0.854422 z" /><path
     style="fill:#edffab;fill-opacity:1;stroke-width:0.264583"
     id="path294"
     d="m 13.350215,15.874749 c 0.37341,0.0158 0.74718,0.02022 1.12086,0.02398 0.57017,0.0045 1.14035,0.0045 1.71052,0.0077 0.63887,-2.9e-5 1.27773,0.0015 1.9166,0.004 0.56846,0.0017 1.1369,0.0016 1.70536,-4.49e-4 0.075,-0.01927 -0.1974,-1.080305 -0.27243,-1.061041 v 0 c -0.56853,-0.0021 -1.13706,-0.0021 -1.70559,-4.5e-4 -0.63818,0.0025 -1.27635,0.004 -1.91453,0.004 -0.56885,0.0032 -1.13771,0.0033 -1.70655,0.0077 -0.36958,0.0037 -0.73925,0.0081 -1.10854,0.02398 -0.07,0.01798 0.18427,1.008447 0.2543,0.990465 z" /><path
     style="fill:#edffab;fill-opacity:1;stroke-width:0.264583"
     id="path306"
     d="m 7.6732448,26.157829 c 0.30659,0.01699 0.61395,0.0192 0.92095,0.02239 0.41204,0.0045 0.85369,0.0053 1.24345,0.01211 0.5758202,0.01109 1.1462502,0.09337 1.7139902,0.183501 0.58473,0.08899 1.16214,0.216747 1.7376,0.351857 0.0906,0.02263 0.18114,0.04527 0.27171,0.0679 0.0684,0.03428 0.55324,-0.933647 0.4848,-0.967927 v 0 c -0.0949,-0.02544 -0.18987,-0.05089 -0.28481,-0.07633 -0.59493,-0.147058 -1.1927,-0.284477 -1.79757,-0.384627 -0.60863,-0.102176 -1.22025,-0.191977 -1.83801,-0.213294 -0.5983102,-0.0093 -1.1964802,-0.0089 -1.7948202,-6.6e-5 -0.30316,0.0032 -0.60671,0.0052 -0.90944,0.02239 -0.0695,0.01783 0.18271,0.999929 0.25215,0.982099 z" /><path
     style="fill:#edffab;fill-opacity:1;stroke-width:0.264583"
     id="path308"
     d="m 11.248235,16.368472 c -0.0825,0.279046 -0.16136,0.559078 -0.2409,0.838965 -0.12279,0.440632 -0.24458,0.88151 -0.36435,1.322973 -0.1475,0.547942 -0.30504,1.092933 -0.47276,1.634999 -0.15175,0.48313 -0.3049102,0.966013 -0.4724902,1.443923 -0.13809,0.392323 -0.31495,0.76897 -0.4845,1.148228 -0.0269,0.06167 -0.0539,0.123332 -0.0809,0.184998 -0.0257,0.07023 0.9675702,0.433083 0.9932202,0.362852 v 0 c 0.0268,-0.05957 0.0535,-0.11915 0.0803,-0.178725 0.1824,-0.400598 0.36613,-0.801086 0.51508,-1.215719 0.17537,-0.487863 0.33968,-0.979719 0.49759,-1.473496 0.17393,-0.553555 0.33082,-1.111764 0.473,-1.674359 0.11472,-0.439948 0.22702,-0.880525 0.3431,-1.32012 0.0793,-0.298138 0.16156,-0.596069 0.22061,-0.899035 0.0124,-0.07121 -0.99459,-0.24669 -1.007,-0.175484 z" /><path
     style="fill:#edffab;fill-opacity:1;stroke-width:0.264583"
     id="path310"
     d="m 1.8457148,11.447169 c -0.0122,0.335391 -0.0156,0.671041 -0.0192,1.006615 -0.005,0.536027 -0.009,1.072054 -0.0116,1.608099 -10e-4,0.660618 -0.006,1.321222 -0.008,1.981834 -0.003,0.718708 5.2e-4,1.437417 7.9e-4,2.156126 0.003,0.663963 0.004,1.327926 0.004,1.991894 0.002,0.627549 -0.007,1.254992 0.0268,1.881808 0.0369,0.579022 0.11585,1.153352 0.22722,1.722394 0.10538,0.507374 0.26115,1.001246 0.44143,1.486364 0.16773,0.460232 0.3838,0.899301 0.62322,1.325826 0.25223,0.434618 0.55426,0.83632 0.87284,1.223795 0.3154,0.372443 0.65232,0.725857 0.98243,1.085124 0.31723,0.354907 0.65659,0.688901 0.99174,1.026634 0.31607,0.319484 0.64874,0.621281 0.99592,0.906433 0.33644,0.284681 0.69823,0.53295 1.08188,0.748829 0.38139,0.214424 0.79615,0.351626 1.21597,0.467347 0.44294,0.122552 0.8998902,0.163811 1.3574202,0.176903 0.52033,0.02093 1.03303,-0.04727 1.5414,-0.148206 0.461,-0.0858 0.90693,-0.228889 1.34483,-0.393933 0.42671,-0.1617 0.84171,-0.351454 1.24938,-0.555964 0.39869,-0.199879 0.77814,-0.434258 1.15242,-0.675936 0.34957,-0.227653 0.69965,-0.454544 1.04809,-0.683932 0.34717,-0.219604 0.67951,-0.46127 1.00651,-0.709573 0.34751,-0.263435 0.67667,-0.549352 0.99293,-0.849281 0.31699,-0.290402 0.59486,-0.61656 0.85539,-0.957388 0.25498,-0.345652 0.46325,-0.721746 0.65788,-1.103666 0.19953,-0.389944 0.35487,-0.799803 0.50809,-1.209465 0.17054,-0.46386 0.32838,-0.932238 0.49315,-1.398182 0.17273,-0.508666 0.35099,-1.015407 0.52633,-1.523171 0.17384,-0.493072 0.3363,-0.990012 0.5112,-1.482709 0.16786,-0.476945 0.33966,-0.95254 0.49711,-1.433045 0.16966,-0.502009 0.30664,-1.013781 0.44338,-1.525419 0.1166,-0.425586 0.22164,-0.854033 0.31025,-1.286295 0.0829,-0.416476 0.13432,-0.838173 0.17828,-1.260248 0.0439,-0.434554 0.0678,-0.870724 0.0868,-1.306964 0.0237,-0.449148 0.0104,-0.899022 -0.0209,-1.34736 -0.0269,-0.40526 -0.0937,-0.8055 -0.18224,-1.201358 -0.0841,-0.37889 -0.23095,-0.736146 -0.40451,-1.081465 -0.18121,-0.3543625 -0.38808,-0.6946035 -0.5999,-1.0312585 -0.20854,-0.334131 -0.45002,-0.644192 -0.71844,-0.931819 -0.23246,-0.245411 -0.50781,-0.440843 -0.79171,-0.621313 -0.0554,-0.04847 -0.74088,0.735554 -0.68544,0.784022 v 0 c 0.22463,0.135971 0.44879,0.276113 0.63575,0.462842 0.23467,0.240059 0.43993,0.504933 0.61968,0.788699 0.20003,0.313875 0.39659,0.6305395 0.57096,0.9595625 0.14663,0.274006 0.2749,0.55693 0.33906,0.863026 0.0779,0.352228 0.13614,0.708197 0.15671,1.068894 0.0268,0.415647 0.0423,0.832586 0.0173,1.248808 -0.018,0.418104 -0.0366,0.836466 -0.0781,1.253042 -0.0413,0.392587 -0.0912,0.784484 -0.16724,1.172075 -0.0867,0.41392 -0.19364,0.822843 -0.31094,1.229151 -0.1386,0.496215 -0.27538,0.993032 -0.43789,1.482146 -0.1531,0.473173 -0.31565,0.943253 -0.4873,1.410029 -0.17715,0.495262 -0.34419,0.994057 -0.5188,1.490219 -0.17432,0.506433 -0.35137,1.01192 -0.52244,1.519465 -0.16036,0.461619 -0.31138,0.926437 -0.47783,1.385894 -0.13853,0.376913 -0.2798,0.753889 -0.46512,1.110935 -0.17329,0.332527 -0.35812,0.660301 -0.58382,0.960679 -0.23458,0.300893 -0.49264,0.581112 -0.77517,0.837989 -0.29706,0.273592 -0.60326,0.537049 -0.92547,0.780854 -0.31501,0.233654 -0.63602,0.459042 -0.96788,0.66832 -0.34649,0.226404 -0.69234,0.453834 -1.04205,0.675235 -0.34832,0.220469 -0.70209,0.432869 -1.07294,0.613804 -0.38427,0.183597 -0.77546,0.352459 -1.17571,0.498462 -0.39447,0.140076 -0.79544,0.26072 -1.20817,0.334785 -0.30756,0.05341 -0.60942,0.06485 -0.91913,0.09141 -0.0238,0.0021 0.0478,0.0024 0.0717,0.0037 -0.38962,7.93e-4 -0.78132,-0.01183 -1.1624502,-0.101344 -0.35324,-0.08156 -0.70542,-0.180848 -1.02931,-0.347236 -0.34286,-0.180478 -0.66731,-0.388184 -0.96028,-0.643565 -0.32611,-0.259638 -0.63998,-0.533672 -0.93133,-0.832276 -0.3256,-0.329763 -0.65235,-0.658751 -0.96666,-0.999335 -0.31824,-0.351823 -0.64754,-0.693668 -0.95802,-1.052455 -0.28985,-0.344154 -0.56876,-0.698257 -0.79832,-1.086447 -0.22227,-0.380385 -0.41964,-0.774374 -0.57076,-1.188982 -0.16366,-0.439545 -0.30652,-0.886029 -0.39856,-1.346814 -0.10446,-0.527518 -0.17438,-1.060011 -0.20551,-1.597207 -0.0338,-0.610159 -0.0165,-1.221049 -0.0182,-1.831885 -1.2e-4,-0.663968 10e-4,-1.327931 0.004,-1.991894 2.6e-4,-0.718709 0.004,-1.437418 7.9e-4,-2.156126 -0.003,-0.660612 -0.007,-1.321216 -0.008,-1.981834 -0.002,-0.536045 -0.007,-1.072072 -0.0116,-1.6081 -0.004,-0.335573 -0.007,-0.671223 -0.0192,-1.006614 0,-0.07243 -1.02432,-0.07243 -1.02432,0 z" /><path
     style="fill:#edffab;fill-opacity:1;stroke-width:0.264583"
     id="path312"
     d="m 20.060815,7.2176455 c -0.28611,0.111817 -0.59255,0.15046 -0.8941,0.198212 -0.61426,0.09241 -1.23365,0.141758 -1.85239,0.192518 -0.59051,0.04915 -1.1819,0.05379 -1.77375,0.04657 -0.56464,-0.0112 -1.12947,-0.03898 -1.68999,-0.109526 -0.21529,0.0028 -0.41456,-0.109291 -0.6224,-0.137317 0.029,0.03611 0.0309,0.140148 0.0774,0.07796 0.0229,-0.06898 -0.9526,-0.393039 -0.97552,-0.324059 v 0 c -0.11301,0.3358 -0.10623,0.661025 0.14124,0.938045 0.27518,0.250382 0.61651,0.364331 0.97881,0.43453 0.59429,0.112959 1.19713,0.162034 1.80152,0.181145 0.80462,0.01795 1.60971,0.0073 2.41178,-0.06519 0.6464,-0.05788 1.29334,-0.124101 1.93029,-0.252133 0.36592,-0.08085 0.73346,-0.169525 1.06421,-0.352479 0.0586,-0.04222 -0.53857,-0.870504 -0.59714,-0.82828 z" /><path
     style="fill:#edffab;fill-opacity:1;stroke-width:0.264583"
     id="path314"
     d="m 11.159565,6.8735895 c -0.30314,0.0046 -0.60618,0.01413 -0.90921,0.02313 -0.21546,0.0027 -0.5467102,-0.0133 -0.9202202,-0.05029 -0.36562,-0.04023 -0.72152,-0.130376 -1.06171,-0.268707 -0.22495,-0.09785 -0.43675,-0.221924 -0.64611,-0.348893 -0.0562,-0.04932 -0.75368,0.7452 -0.6975,0.794521 v 0 c 0.24302,0.155719 0.4903,0.305516 0.75067,0.430937 0.41219,0.187281 0.84014,0.325603 1.2905,0.387446 0.52361,0.07114 1.0524602,0.100382 1.5807502,0.06957 0.31413,-0.01523 0.62906,-0.02942 0.94094,-0.07185 0.0683,-0.0232 -0.25982,-0.989068 -0.32811,-0.965866 z" /><path
     style="fill:#edffab;fill-opacity:1;stroke-width:0.264583"
     id="path316"
     d="m 5.9637048,6.2914565 c -0.31565,0.07024 -0.62102,0.173934 -0.92361,0.286899 -0.4549,0.16282 -0.88782,0.375562 -1.29826,0.629308 -0.43369,0.269794 -0.80379,0.617512 -1.12578,1.011118 -0.33974,0.439059 -0.57188,0.944356 -0.78539,1.453115 -0.21466,0.5116225 -0.36992,1.0425935 -0.46809,1.5879795 -0.0117,0.07456 1.04277,0.240396 1.0545,0.165832 v 0 c 0.0951,-0.481524 0.24584,-0.947713 0.43421,-1.40102 0.17775,-0.4264185 0.36317,-0.8547565 0.65382,-1.2187585 0.26598,-0.311188 0.57623,-0.576791 0.92936,-0.786058 0.37008,-0.215 0.75885,-0.392226 1.16166,-0.537462 0.28345,-0.105769 0.57173,-0.196962 0.85495,-0.303189 0.0628,-0.03446 -0.4246,-0.922226 -0.48737,-0.887764 z" /><path
     style="fill:#edffab;fill-opacity:1;stroke-width:0.264583"
     id="path318"
     d="m 1.7146648,11.035006 c -0.28448,0.05472 -0.51879,0.221156 -0.72825004,0.412405 -0.27846,0.275994 -0.4386,0.632385 -0.57828,0.992119 -0.1541,0.419113 -0.24248,0.857507 -0.31868,1.29623 -0.091,0.47959 -0.10173,0.966064 -0.0797,1.452 0.0263,0.505623 0.14269,0.997409 0.2836,1.481506 0.12835,0.418001 0.29613,0.82187 0.46662,1.223967 0.14379,0.34969 0.30089004,0.692877 0.47163004,1.030172 0.16282,0.334267 0.36559,0.642856 0.605,0.926525 0.1183,0.139164 0.26237,0.248247 0.40903,0.354746 0.0537,0.05009 0.76217,-0.709829 0.70843,-0.759923 v 0 c -0.0915,-0.05408 -0.18031,-0.111313 -0.25597,-0.18722 -0.20179,-0.221174 -0.3646,-0.468816 -0.49606,-0.738254 -0.16167,-0.317443 -0.31109,-0.640358 -0.44424,-0.970888 -0.15366,-0.372609 -0.30691,-0.745723 -0.42975,-1.129959 -0.12142,-0.417518 -0.22463,-0.840673 -0.25063,-1.276601 -0.0244,-0.419378 -0.0164,-0.838891 0.0636,-1.252926 0.0663,-0.381102 0.13933,-0.762958 0.27061,-1.128013 0.0874,-0.227245 0.175,-0.465492 0.35767,-0.635123 0.10469,-0.08358 0.21713,-0.138158 0.35118,-0.155563 0.0661,-0.0287 -0.33971,-0.963897 -0.40584,-0.9352 z" /><path
     style="fill:#edffab;fill-opacity:1;stroke-width:0.264583"
     id="path320"
     d="m 23.959765,15.240265 c 0.15478,0.0081 0.29297,0.06893 0.41967,0.154394 0.21529,0.171394 0.33809,0.419465 0.45247,0.663346 0.14028,0.307152 0.16312,0.637728 0.1304,0.969142 -0.0571,0.38864 -0.21474,0.746416 -0.39698,1.090423 -0.21326,0.3787 -0.4726,0.728701 -0.72506,1.081655 -0.24233,0.329774 -0.48725,0.658766 -0.76768,0.957374 -0.20243,0.209599 -0.43221,0.387292 -0.69341,0.516235 -0.0836,0.06414 -0.76237,0.03937 -0.28712,0.03562 -0.0693,-0.02394 -0.40792,0.956482 -0.33859,0.980424 v 0 c 0.46876,0.02528 0.85141,0.03243 1.27359,-0.198655 0.33426,-0.193659 0.6388,-0.430657 0.9017,-0.715061 0.3006,-0.331017 0.57731,-0.682588 0.8378,-1.045992 0.27513,-0.388316 0.5544,-0.775792 0.77877,-1.196599 0.22919,-0.452961 0.42157,-0.925456 0.47677,-1.43492 0.0322,-0.484882 -0.004,-0.966461 -0.2056,-1.416062 -0.17474,-0.379252 -0.37701,-0.74848 -0.70037,-1.023104 -0.24588,-0.18912 -0.5127,-0.339344 -0.82504,-0.382083 -0.0682,-0.02343 -0.39948,0.940437 -0.33132,0.963864 z" /><path
     style="fill:#edffab;fill-opacity:1;stroke-width:0.264583"
     id="path322"
     d="m 1.3628548,10.416776 c 0.007,-0.307483 0.029,-0.6142465 0.0619,-0.9199775 0.0578,-0.482052 0.16804,-0.955333 0.29014,-1.424513 0.13666,-0.502006 0.30133,-0.995785 0.48377,-1.482844 0.0293,-0.07625 0.0587,-0.152492 0.088,-0.228737 0.0232,-0.07216 -0.99732,-0.400256 -1.02052,-0.328095 v 0 c -0.031,0.07921 -0.062,0.158416 -0.093,0.237623 -0.19476004,0.517442 -0.37195004,1.041912 -0.51271004,1.576863 -0.12982,0.515619 -0.24373,1.036289 -0.29438,1.566528 -0.0272,0.333664 -0.0438,0.6684735 -0.0241,1.0031525 0,0.07219 1.02086004,0.07219 1.02086004,0 z" /><path
     style="fill:#edffab;fill-opacity:1;stroke-width:0.264583"
     id="path324"
     d="m 1.9290048,4.376754 c 0.34538,-0.2395919 0.69607,-0.4713276 1.05231,-0.6945016 0.62699,-0.3861959 1.27678,-0.7326484 1.9399,-1.0521365 0.78406,-0.3837368 1.61044,-0.6598912 2.45114,-0.8873483 0.92199,-0.2459487 1.86168,-0.41258 2.8092302,-0.5188048 0.88504,-0.1091629 1.77355,-0.1297425 2.66344,-0.1094463 0.91355,0.024852 1.82402,0.1133463 2.72824,0.2429392 0.7561,0.1160463 1.50473,0.2773336 2.24341,0.4752661 0.64393,0.1758496 1.26552,0.4178074 1.87814,0.6804137 0.60051,0.2542284 1.15139,0.6043801 1.68664,0.9730552 0.51716,0.3552295 0.98612,0.7721962 1.43661,1.2071519 0.44793,0.4456099 0.88057,0.9060649 1.32645,1.3537149 0.40289,0.411156 0.83881,0.785136 1.30402,1.123396 0.33749,0.242696 0.70159,0.442441 1.07323,0.626809 0.0607,0.04445 0.68924,-0.813461 0.62858,-0.857908 v 0 c -0.32847,-0.156922 -0.65201,-0.325805 -0.95064,-0.535372 -0.42847,-0.30475 -0.82973,-0.6424 -1.19479,-1.021831 -0.44909,-0.4511951 -0.88072,-0.919139 -1.33176,-1.3683906 -0.48205,-0.4717547 -0.98131,-0.9275799 -1.53138,-1.3199603 -0.5793,-0.4123781 -1.17967,-0.7973649 -1.83137,-1.0868599 -0.6479,-0.2870737 -1.30467,-0.5544218 -1.98558,-0.75424651 -0.76843,-0.2194635 -1.54643,-0.4062359 -2.33475,-0.5396776 -0.93824,-0.1540767 -1.88413,-0.2604947 -2.83471,-0.297975 -1.12648,-0.03782 -2.25369,-0.00836 -3.3728702,0.134733 -0.9903,0.1357054 -1.97509,0.3164887 -2.93845,0.5866015 -0.88791,0.2626452 -1.76108,0.57408331 -2.58789,0.99516991 -0.68744,0.3484399 -1.36533,0.7169611 -2.00609,1.1467283 -0.37119,0.2528808 -0.74019,0.5116051 -1.07964,0.8065284 -0.0489,0.05364 0.70965,0.7455913 0.75858,0.6919513 z" /><path
     style="fill:#edffab;fill-opacity:1;stroke-width:0.264583"
     id="path326"
     d="m 25.682475,9.0208655 c -0.0292,0.272282 -0.0451,0.545773 -0.0596,0.819156 -0.0146,0.4225355 -0.043,0.8441375 -0.085,1.2647935 -0.0469,0.458593 -0.1376,0.91015 -0.24752,1.35727 -0.0933,0.404428 -0.24049,0.792227 -0.40848,1.170715 -0.0256,0.07058 0.9726,0.432067 0.99817,0.361486 v 0 c 0.18559,-0.426953 0.348,-0.864358 0.45676,-1.317844 0.11976,-0.489288 0.21946,-0.98369 0.26487,-1.486125 0.0401,-0.436383 0.066,-0.873491 0.0724,-1.3117615 0.009,-0.271633 0.0188,-0.543272 0.0258,-0.814969 0.003,-0.07194 -1.01438,-0.114662 -1.0174,-0.042721 z" /></svg>
