<?xml version="1.0" encoding="UTF-8" standalone="no"?>
<!-- Created with Inkscape (http://www.inkscape.org/) -->

<svg
   width="640"
   height="160"
   viewBox="0 0 169.33333 42.333332"
   version="1.1"
   id="svg5"
   xml:space="preserve"
   xmlns="http://www.w3.org/2000/svg"
   xmlns:svg="http://www.w3.org/2000/svg"><defs
     id="defs2" /><g
     id="layer1"><path
       style="fill:#eff1f3;fill-opacity:1;stroke-width:0.264583"
       id="path250"
       d="m 31.210776,5.5393566 c -1.102072,-0.02932 -2.188819,0.252124 -3.240215,0.55157 -1.434324,0.464443 -2.864911,1.008245 -4.121411,1.858164 -0.292268,0.197695 -0.565035,0.422791 -0.847552,0.634186 -1.263346,1.019482 -2.301873,2.2892294 -3.06846,3.7197854 -0.132387,0.247053 -0.244902,0.504252 -0.367352,0.756378 -0.479084,1.166878 -0.863251,2.45927 -0.511081,3.721003 0.07166,0.256728 0.194974,0.496145 0.292461,0.744218 0.150525,0.216459 0.277228,0.451601 0.451577,0.649376 0.86976,0.98662 2.050328,1.203893 3.322045,1.131775 0.239403,-0.01358 0.460433,-0.134143 0.690649,-0.201214 1.111802,-0.466287 1.874143,-1.278187 2.287189,-2.411697 0.07523,-0.206437 0.119793,-0.422787 0.179692,-0.63418 0.214924,-1.023007 0.173911,-2.083344 -0.172193,-3.07447 -0.07212,-0.20652 -0.166632,-0.404524 -0.24995,-0.606787 -0.536741,-1.043923 -1.354954,-1.899129 -2.364455,-2.4985374 -0.231005,-0.137163 -0.474665,-0.251795 -0.711997,-0.377692 -1.657011,-0.737543 -3.436691,-0.849999 -5.228847,-0.76554 -0.319263,0.01505 -0.634219,0.07992 -0.951329,0.11988 -1.74748,0.292858 -3.388777,0.972961 -4.851106,1.9709394 -0.318827,0.217586 -0.619881,0.460136 -0.929822,0.690205 -1.5184512,1.248966 -2.7983519,2.757539 -3.8566145,4.410921 -0.2073151,0.323899 -0.3976275,0.658372 -0.596441,0.987558 -0.9261591,1.638334 -1.6389797,3.395579 -2.0233274,5.241409 -0.07334,0.352218 -0.1222862,0.709078 -0.1834293,1.063617 -0.1788954,1.337758 -0.1892464,2.695582 0.016277,4.0311 0.1269203,0.824747 0.2108729,1.043243 0.4296216,1.845782 0.4939274,1.552558 1.3368584,2.954399 2.4619921,4.131509 0.2285505,0.239109 0.4760997,0.459306 0.7141498,0.688959 1.4490215,1.259652 3.2180167,2.013381 5.0670997,2.471147 0.36848,0.09122 0.742545,0.158187 1.113817,0.237279 1.833909,0.349194 3.697595,0.40327 5.559227,0.336976 0.742812,-0.02646 1.601582,-0.156343 2.3367,-0.252376 1.836495,-0.27173 3.622441,-0.781801 5.387497,-1.343922 0.240205,-0.128233 -1.573297,-3.525229 -1.813499,-3.396996 v 0 c -1.624546,0.430747 -3.258476,0.838724 -4.930317,1.041207 -0.341834,0.03665 -0.683669,0.0733 -1.025503,0.109948 -0.339959,0.02095 -0.680988,0.0287 -1.019877,0.06284 -0.01538,0.0016 -0.0045,0.04133 -0.0199,0.04189 -0.97362,0.03523 -1.949371,-0.04971 -2.914496,-0.167643 C 13.828871,32.768118 12.104543,32.437783 10.624838,31.515805 10.443726,31.36585 10.253946,31.225788 10.081501,31.06594 9.5925008,30.612665 9.1139988,30.063782 8.7696078,29.490538 8.5174338,29.070792 8.3934773,28.718945 8.2093328,28.268626 8.1469909,28.045811 8.0744374,27.825605 8.0223071,27.600183 7.7329397,26.348896 7.7281055,25.063029 7.9357555,23.79866 c 0.054502,-0.277699 0.098463,-0.557676 0.1635072,-0.833096 0.3589716,-1.520003 0.9805361,-2.960824 1.7620201,-4.30948 0.1716782,-0.27502 0.3352632,-0.555259 0.5150342,-0.825058 0.890697,-1.336754 1.952325,-2.555987 3.184167,-3.588911 0.23411,-0.174481 0.460426,-0.359937 0.70233,-0.523442 1.092388,-0.738355 2.278668,-1.193235 3.585808,-1.367584 0.236848,-0.02087 0.473697,-0.04173 0.710546,-0.0626 -0.06882,-0.01249 -0.275828,-0.02846 -0.206465,-0.03748 0.81127,-0.105454 1.641791,0.0442 2.437985,0.181411 0.151719,0.04346 0.307213,0.07542 0.455155,0.130374 0.566665,0.210503 1.062308,0.530843 1.430962,1.013713 0.326992,0.570754 0.409435,1.092164 0.293538,1.740442 -0.09096,0.392284 -0.171161,0.688847 -0.60914,0.772112 -0.03291,-0.0042 -0.131668,-0.01669 -0.09873,-0.01267 0.23129,0.02825 0.46796,0.02798 0.693795,0.08535 0.05373,0.01365 -0.106637,0.03081 -0.158393,0.05066 -0.119488,0.04583 -0.09703,0.05918 -0.213908,0.08936 -0.02909,0.0075 -0.05943,0.0089 -0.08914,0.01333 -0.02555,-0.01547 -0.06272,-0.01999 -0.07663,-0.04642 -0.239355,-0.454813 0.298789,-1.376868 0.472866,-1.774035 0.727139,-1.241757 1.60493,-2.380138 2.773359,-3.242033 0.203237,-0.146018 0.399634,-0.302064 0.609711,-0.438056 1.064162,-0.688874 2.26995,-1.1238284 3.447486,-1.5718684 0.767165,-0.269932 1.544527,-0.508215 2.328368,-0.725053 0.210595,-0.05934 -0.62861,-3.037612 -0.839205,-2.978271 z" /><path
       style="fill:#edffab;fill-opacity:1;stroke-width:0.264583"
       id="path292"
       d="m 137.66578,18.774 c 0.27969,0.125146 0.56616,0.234002 0.85252,0.342694 0.44464,0.168971 0.89512,0.32156 1.34612,0.472461 0.46324,0.15437 0.93051,0.296136 1.3945,0.448156 0.47933,0.162711 0.9596,0.322362 1.44144,0.477465 0.0776,0.02484 0.15528,0.04967 0.23292,0.07451 0.066,0.03703 0.58962,-0.89563 0.52367,-0.932659 v 0 c -0.0759,-0.02434 -0.15186,-0.04867 -0.2278,-0.07301 -0.4809,-0.159275 -0.96271,-0.315791 -1.4428,-0.47755 -0.46227,-0.149091 -0.92525,-0.29583 -1.38712,-0.446212 -0.44459,-0.14836 -0.89077,-0.291956 -1.33327,-0.44652 -0.27901,-0.09763 -0.55817,-0.195869 -0.83678,-0.293753 -0.0604,-0.03984 -0.62382,0.814583 -0.5634,0.854422 z" /><path
       style="fill:#edffab;fill-opacity:1;stroke-width:0.264583"
       id="path294"
       d="m 146.10676,20.693395 c 0.37341,0.0158 0.74718,0.02022 1.12086,0.02398 0.57017,0.0045 1.14035,0.0045 1.71052,0.0077 0.63887,-2.9e-5 1.27773,0.0015 1.9166,0.004 0.56846,0.0017 1.1369,0.0016 1.70536,-4.49e-4 0.075,-0.01927 -0.1974,-1.080305 -0.27243,-1.061041 v 0 c -0.56853,-0.0021 -1.13706,-0.0021 -1.70559,-4.5e-4 -0.63818,0.0025 -1.27635,0.004 -1.91453,0.004 -0.56885,0.0032 -1.13771,0.0033 -1.70655,0.0077 -0.36958,0.0037 -0.73925,0.0081 -1.10854,0.02398 -0.07,0.01798 0.18427,1.008447 0.2543,0.990465 z" /><path
       style="fill:#edffab;fill-opacity:1;stroke-width:0.264583"
       id="path306"
       d="m 140.42979,30.976475 c 0.30659,0.01699 0.61395,0.0192 0.92095,0.02239 0.41204,0.0045 0.85369,0.0053 1.24345,0.01211 0.57582,0.01109 1.14625,0.09337 1.71399,0.183501 0.58473,0.08899 1.16214,0.216747 1.7376,0.351857 0.0906,0.02263 0.18114,0.04527 0.27171,0.0679 0.0684,0.03428 0.55324,-0.933647 0.4848,-0.967927 v 0 c -0.0949,-0.02544 -0.18987,-0.05089 -0.28481,-0.07633 -0.59493,-0.147058 -1.1927,-0.284477 -1.79757,-0.384627 -0.60863,-0.102176 -1.22025,-0.191977 -1.83801,-0.213294 -0.59831,-0.0093 -1.19648,-0.0089 -1.79482,-6.6e-5 -0.30316,0.0032 -0.60671,0.0052 -0.90944,0.02239 -0.0695,0.01783 0.18271,0.999929 0.25215,0.982099 z" /><path
       style="fill:#edffab;fill-opacity:1;stroke-width:0.264583"
       id="path308"
       d="m 144.00478,21.187118 c -0.0825,0.279046 -0.16136,0.559078 -0.2409,0.838965 -0.12279,0.440632 -0.24458,0.88151 -0.36435,1.322973 -0.1475,0.547942 -0.30504,1.092933 -0.47276,1.634999 -0.15175,0.48313 -0.30491,0.966013 -0.47249,1.443923 -0.13809,0.392323 -0.31495,0.76897 -0.4845,1.148228 -0.0269,0.06167 -0.0539,0.123332 -0.0809,0.184998 -0.0257,0.07023 0.96757,0.433083 0.99322,0.362852 v 0 c 0.0268,-0.05957 0.0535,-0.11915 0.0803,-0.178725 0.1824,-0.400598 0.36613,-0.801086 0.51508,-1.215719 0.17537,-0.487863 0.33968,-0.979719 0.49759,-1.473496 0.17393,-0.553555 0.33082,-1.111764 0.473,-1.674359 0.11472,-0.439948 0.22702,-0.880525 0.3431,-1.32012 0.0793,-0.298138 0.16156,-0.596069 0.22061,-0.899035 0.0124,-0.07121 -0.99459,-0.24669 -1.007,-0.175484 z" /><path
       style="fill:#edffab;fill-opacity:1;stroke-width:0.264583"
       id="path310"
       d="m 134.60226,16.265815 c -0.0122,0.335391 -0.0156,0.671041 -0.0192,1.006615 -0.005,0.536027 -0.009,1.072054 -0.0116,1.608099 -0.001,0.660618 -0.006,1.321222 -0.008,1.981834 -0.003,0.718708 5.2e-4,1.437417 7.9e-4,2.156126 0.003,0.663963 0.004,1.327926 0.004,1.991894 0.002,0.627549 -0.007,1.254992 0.0268,1.881808 0.0369,0.579022 0.11585,1.153352 0.22722,1.722394 0.10538,0.507374 0.26115,1.001246 0.44143,1.486364 0.16773,0.460232 0.3838,0.899301 0.62322,1.325826 0.25223,0.434618 0.55426,0.83632 0.87284,1.223795 0.3154,0.372443 0.65232,0.725857 0.98243,1.085124 0.31723,0.354907 0.65659,0.688901 0.99174,1.026634 0.31607,0.319484 0.64874,0.621281 0.99592,0.906433 0.33644,0.284681 0.69823,0.53295 1.08188,0.748829 0.38139,0.214424 0.79615,0.351626 1.21597,0.467347 0.44294,0.122552 0.89989,0.163811 1.35742,0.176903 0.52033,0.02093 1.03303,-0.04727 1.5414,-0.148206 0.461,-0.0858 0.90693,-0.228889 1.34483,-0.393933 0.42671,-0.1617 0.84171,-0.351454 1.24938,-0.555964 0.39869,-0.199879 0.77814,-0.434258 1.15242,-0.675936 0.34957,-0.227653 0.69965,-0.454544 1.04809,-0.683932 0.34717,-0.219604 0.67951,-0.46127 1.00651,-0.709573 0.34751,-0.263435 0.67667,-0.549352 0.99293,-0.849281 0.31699,-0.290402 0.59486,-0.61656 0.85539,-0.957388 0.25498,-0.345652 0.46325,-0.721746 0.65788,-1.103666 0.19953,-0.389944 0.35487,-0.799803 0.50809,-1.209465 0.17054,-0.46386 0.32838,-0.932238 0.49315,-1.398182 0.17273,-0.508666 0.35099,-1.015407 0.52633,-1.523171 0.17384,-0.493072 0.3363,-0.990012 0.5112,-1.482709 0.16786,-0.476945 0.33966,-0.95254 0.49711,-1.433045 0.16966,-0.502009 0.30664,-1.013781 0.44338,-1.525419 0.1166,-0.425586 0.22164,-0.854033 0.31025,-1.286295 0.0829,-0.416476 0.13432,-0.838173 0.17828,-1.260248 0.0439,-0.434554 0.0678,-0.870724 0.0868,-1.306964 0.0237,-0.449148 0.0104,-0.899022 -0.0209,-1.34736 -0.0269,-0.40526 -0.0937,-0.8055 -0.18224,-1.201358 -0.0841,-0.37889 -0.23095,-0.736146 -0.40451,-1.081465 -0.18121,-0.354363 -0.38808,-0.694604 -0.5999,-1.031259 -0.20854,-0.334131 -0.45002,-0.644192 -0.71844,-0.931819 -0.23246,-0.245411 -0.50781,-0.440843 -0.79171,-0.621313 -0.0554,-0.04847 -0.74088,0.735554 -0.68544,0.784022 v 0 c 0.22463,0.135971 0.44879,0.276113 0.63575,0.462842 0.23467,0.240059 0.43993,0.504933 0.61968,0.788699 0.20003,0.313875 0.39659,0.63054 0.57096,0.959563 0.14663,0.274006 0.2749,0.55693 0.33906,0.863026 0.0779,0.352228 0.13614,0.708197 0.15671,1.068894 0.0268,0.415647 0.0423,0.832586 0.0173,1.248808 -0.018,0.418104 -0.0366,0.836466 -0.0781,1.253042 -0.0413,0.392587 -0.0912,0.784484 -0.16724,1.172075 -0.0867,0.41392 -0.19364,0.822843 -0.31094,1.229151 -0.1386,0.496215 -0.27538,0.993032 -0.43789,1.482146 -0.1531,0.473173 -0.31565,0.943253 -0.4873,1.410029 -0.17715,0.495262 -0.34419,0.994057 -0.5188,1.490219 -0.17432,0.506433 -0.35137,1.01192 -0.52244,1.519465 -0.16036,0.461619 -0.31138,0.926437 -0.47783,1.385894 -0.13853,0.376913 -0.2798,0.753889 -0.46512,1.110935 -0.17329,0.332527 -0.35812,0.660301 -0.58382,0.960679 -0.23458,0.300893 -0.49264,0.581112 -0.77517,0.837989 -0.29706,0.273592 -0.60326,0.537049 -0.92547,0.780854 -0.31501,0.233654 -0.63602,0.459042 -0.96788,0.66832 -0.34649,0.226404 -0.69234,0.453834 -1.04205,0.675235 -0.34832,0.220469 -0.70209,0.432869 -1.07294,0.613804 -0.38427,0.183597 -0.77546,0.352459 -1.17571,0.498462 -0.39447,0.140076 -0.79544,0.26072 -1.20817,0.334785 -0.30756,0.05341 -0.60942,0.06485 -0.91913,0.09141 -0.0238,0.0021 0.0478,0.0024 0.0717,0.0037 -0.38962,7.93e-4 -0.78132,-0.01183 -1.16245,-0.101344 -0.35324,-0.08156 -0.70542,-0.180848 -1.02931,-0.347236 -0.34286,-0.180478 -0.66731,-0.388184 -0.96028,-0.643565 -0.32611,-0.259638 -0.63998,-0.533672 -0.93133,-0.832276 -0.3256,-0.329763 -0.65235,-0.658751 -0.96666,-0.999335 -0.31824,-0.351823 -0.64754,-0.693668 -0.95802,-1.052455 -0.28985,-0.344154 -0.56876,-0.698257 -0.79832,-1.086447 -0.22227,-0.380385 -0.41964,-0.774374 -0.57076,-1.188982 -0.16366,-0.439545 -0.30652,-0.886029 -0.39856,-1.346814 -0.10446,-0.527518 -0.17438,-1.060011 -0.20551,-1.597207 -0.0338,-0.610159 -0.0165,-1.221049 -0.0182,-1.831885 -1.2e-4,-0.663968 0.001,-1.327931 0.004,-1.991894 2.6e-4,-0.718709 0.004,-1.437418 7.9e-4,-2.156126 -0.003,-0.660612 -0.007,-1.321216 -0.008,-1.981834 -0.002,-0.536045 -0.007,-1.072072 -0.0116,-1.6081 -0.004,-0.335573 -0.007,-0.671223 -0.0192,-1.006614 0,-0.07243 -1.02432,-0.07243 -1.02432,0 z" /><path
       style="fill:#edffab;fill-opacity:1;stroke-width:0.264583"
       id="path312"
       d="m 152.81736,12.036291 c -0.28611,0.111817 -0.59255,0.15046 -0.8941,0.198212 -0.61426,0.09241 -1.23365,0.141758 -1.85239,0.192518 -0.59051,0.04915 -1.1819,0.05379 -1.77375,0.04657 -0.56464,-0.0112 -1.12947,-0.03898 -1.68999,-0.109526 -0.21529,0.0028 -0.41456,-0.109291 -0.6224,-0.137317 0.029,0.03611 0.0309,0.140148 0.0774,0.07796 0.0229,-0.06898 -0.9526,-0.393039 -0.97552,-0.324059 v 0 c -0.11301,0.3358 -0.10623,0.661025 0.14124,0.938045 0.27518,0.250382 0.61651,0.364331 0.97881,0.43453 0.59429,0.112959 1.19713,0.162034 1.80152,0.181145 0.80462,0.01795 1.60971,0.0073 2.41178,-0.06519 0.6464,-0.05788 1.29334,-0.124101 1.93029,-0.252133 0.36592,-0.08085 0.73346,-0.169525 1.06421,-0.352479 0.0586,-0.04222 -0.53857,-0.870504 -0.59714,-0.82828 z" /><path
       style="fill:#edffab;fill-opacity:1;stroke-width:0.264583"
       id="path314"
       d="m 143.91611,11.692235 c -0.30314,0.0046 -0.60618,0.01413 -0.90921,0.02313 -0.21546,0.0027 -0.54671,-0.0133 -0.92022,-0.05029 -0.36562,-0.04023 -0.72152,-0.130376 -1.06171,-0.268707 -0.22495,-0.09785 -0.43675,-0.221924 -0.64611,-0.348893 -0.0562,-0.04932 -0.75368,0.7452 -0.6975,0.794521 v 0 c 0.24302,0.155719 0.4903,0.305516 0.75067,0.430937 0.41219,0.187281 0.84014,0.325603 1.2905,0.387446 0.52361,0.07114 1.05246,0.100382 1.58075,0.06957 0.31413,-0.01523 0.62906,-0.02942 0.94094,-0.07185 0.0683,-0.0232 -0.25982,-0.989068 -0.32811,-0.965866 z" /><path
       style="fill:#edffab;fill-opacity:1;stroke-width:0.264583"
       id="path316"
       d="m 138.72025,11.110102 c -0.31565,0.07024 -0.62102,0.173934 -0.92361,0.286899 -0.4549,0.16282 -0.88782,0.375562 -1.29826,0.629308 -0.43369,0.269794 -0.80379,0.617512 -1.12578,1.011118 -0.33974,0.439059 -0.57188,0.944356 -0.78539,1.453115 -0.21466,0.511623 -0.36992,1.042594 -0.46809,1.58798 -0.0117,0.07456 1.04277,0.240396 1.0545,0.165832 v 0 c 0.0951,-0.481524 0.24584,-0.947713 0.43421,-1.40102 0.17775,-0.426419 0.36317,-0.854757 0.65382,-1.218759 0.26598,-0.311188 0.57623,-0.576791 0.92936,-0.786058 0.37008,-0.215 0.75885,-0.392226 1.16166,-0.537462 0.28345,-0.105769 0.57173,-0.196962 0.85495,-0.303189 0.0628,-0.03446 -0.4246,-0.922226 -0.48737,-0.887764 z" /><path
       style="fill:#edffab;fill-opacity:1;stroke-width:0.264583"
       id="path318"
       d="m 134.47121,15.853652 c -0.28448,0.05472 -0.51879,0.221156 -0.72825,0.412405 -0.27846,0.275994 -0.4386,0.632385 -0.57828,0.992119 -0.1541,0.419113 -0.24248,0.857507 -0.31868,1.29623 -0.091,0.47959 -0.10173,0.966064 -0.0797,1.452 0.0263,0.505623 0.14269,0.997409 0.2836,1.481506 0.12835,0.418001 0.29613,0.82187 0.46662,1.223967 0.14379,0.34969 0.30089,0.692877 0.47163,1.030172 0.16282,0.334267 0.36559,0.642856 0.605,0.926525 0.1183,0.139164 0.26237,0.248247 0.40903,0.354746 0.0537,0.05009 0.76217,-0.709829 0.70843,-0.759923 v 0 c -0.0915,-0.05408 -0.18031,-0.111313 -0.25597,-0.18722 -0.20179,-0.221174 -0.3646,-0.468816 -0.49606,-0.738254 -0.16167,-0.317443 -0.31109,-0.640358 -0.44424,-0.970888 -0.15366,-0.372609 -0.30691,-0.745723 -0.42975,-1.129959 -0.12142,-0.417518 -0.22463,-0.840673 -0.25063,-1.276601 -0.0244,-0.419378 -0.0164,-0.838891 0.0636,-1.252926 0.0663,-0.381102 0.13933,-0.762958 0.27061,-1.128013 0.0874,-0.227245 0.175,-0.465492 0.35767,-0.635123 0.10469,-0.08358 0.21713,-0.138158 0.35118,-0.155563 0.0661,-0.0287 -0.33971,-0.963897 -0.40584,-0.9352 z" /><path
       style="fill:#edffab;fill-opacity:1;stroke-width:0.264583"
       id="path320"
       d="m 156.71631,20.058911 c 0.15478,0.0081 0.29297,0.06893 0.41967,0.154394 0.21529,0.171394 0.33809,0.419465 0.45247,0.663346 0.14028,0.307152 0.16312,0.637728 0.1304,0.969142 -0.0571,0.38864 -0.21474,0.746416 -0.39698,1.090423 -0.21326,0.3787 -0.4726,0.728701 -0.72506,1.081655 -0.24233,0.329774 -0.48725,0.658766 -0.76768,0.957374 -0.20243,0.209599 -0.43221,0.387292 -0.69341,0.516235 -0.0836,0.06414 -0.76237,0.03937 -0.28712,0.03562 -0.0693,-0.02394 -0.40792,0.956482 -0.33859,0.980424 v 0 c 0.46876,0.02528 0.85141,0.03243 1.27359,-0.198655 0.33426,-0.193659 0.6388,-0.430657 0.9017,-0.715061 0.3006,-0.331017 0.57731,-0.682588 0.8378,-1.045992 0.27513,-0.388316 0.5544,-0.775792 0.77877,-1.196599 0.22919,-0.452961 0.42157,-0.925456 0.47677,-1.43492 0.0322,-0.484882 -0.004,-0.966461 -0.2056,-1.416062 -0.17474,-0.379252 -0.37701,-0.74848 -0.70037,-1.023104 -0.24588,-0.18912 -0.5127,-0.339344 -0.82504,-0.382083 -0.0682,-0.02343 -0.39948,0.940437 -0.33132,0.963864 z" /><path
       style="fill:#edffab;fill-opacity:1;stroke-width:0.264583"
       id="path322"
       d="m 134.1194,15.235422 c 0.007,-0.307483 0.029,-0.614247 0.0619,-0.919978 0.0578,-0.482052 0.16804,-0.955333 0.29014,-1.424513 0.13666,-0.502006 0.30133,-0.995785 0.48377,-1.482844 0.0293,-0.07625 0.0587,-0.152492 0.088,-0.228737 0.0232,-0.07216 -0.99732,-0.400256 -1.02052,-0.328095 v 0 c -0.031,0.07921 -0.062,0.158416 -0.093,0.237623 -0.19476,0.517442 -0.37195,1.041912 -0.51271,1.576863 -0.12982,0.515619 -0.24373,1.036289 -0.29438,1.566528 -0.0272,0.333664 -0.0438,0.668474 -0.0241,1.003153 0,0.07219 1.02086,0.07219 1.02086,0 z" /><path
       style="fill:#edffab;fill-opacity:1;stroke-width:0.264583"
       id="path324"
       d="m 134.68555,9.1953995 c 0.34538,-0.2395919 0.69607,-0.4713276 1.05231,-0.6945016 0.62699,-0.3861959 1.27678,-0.7326484 1.9399,-1.0521365 0.78406,-0.3837368 1.61044,-0.6598912 2.45114,-0.8873483 0.92199,-0.2459487 1.86168,-0.41258 2.80923,-0.5188048 0.88504,-0.1091629 1.77355,-0.1297425 2.66344,-0.1094463 0.91355,0.024852 1.82402,0.1133463 2.72824,0.2429392 0.7561,0.1160463 1.50473,0.2773336 2.24341,0.4752661 0.64393,0.1758496 1.26552,0.4178074 1.87814,0.6804137 0.60051,0.2542284 1.15139,0.6043801 1.68664,0.9730552 0.51716,0.3552295 0.98612,0.7721962 1.43661,1.2071519 0.44793,0.4456099 0.88057,0.9060649 1.32645,1.3537149 0.40289,0.411156 0.83881,0.785136 1.30402,1.123396 0.33749,0.242696 0.70159,0.442441 1.07323,0.626809 0.0607,0.04445 0.68924,-0.813461 0.62858,-0.857908 v 0 c -0.32847,-0.156922 -0.65201,-0.325805 -0.95064,-0.535372 -0.42847,-0.30475 -0.82973,-0.6424 -1.19479,-1.021831 -0.44909,-0.4511951 -0.88072,-0.919139 -1.33176,-1.3683906 -0.48205,-0.4717547 -0.98131,-0.9275799 -1.53138,-1.3199603 -0.5793,-0.4123781 -1.17967,-0.7973649 -1.83137,-1.0868599 -0.6479,-0.2870737 -1.30467,-0.5544218 -1.98558,-0.7542465 -0.76843,-0.2194635 -1.54643,-0.4062359 -2.33475,-0.5396776 -0.93824,-0.1540767 -1.88413,-0.2604947 -2.83471,-0.297975 -1.12648,-0.03782 -2.25369,-0.00836 -3.37287,0.134733 -0.9903,0.1357054 -1.97509,0.3164887 -2.93845,0.5866015 -0.88791,0.2626452 -1.76108,0.5740833 -2.58789,0.9951699 -0.68744,0.3484399 -1.36533,0.7169611 -2.00609,1.1467283 -0.37119,0.2528808 -0.74019,0.5116051 -1.07964,0.8065284 -0.0489,0.05364 0.70965,0.7455913 0.75858,0.6919513 z" /><path
       style="fill:#edffab;fill-opacity:1;stroke-width:0.264583"
       id="path326"
       d="m 158.43902,13.839511 c -0.0292,0.272282 -0.0451,0.545773 -0.0596,0.819156 -0.0146,0.422536 -0.043,0.844138 -0.085,1.264794 -0.0469,0.458593 -0.1376,0.91015 -0.24752,1.35727 -0.0933,0.404428 -0.24049,0.792227 -0.40848,1.170715 -0.0256,0.07058 0.9726,0.432067 0.99817,0.361486 v 0 c 0.18559,-0.426953 0.348,-0.864358 0.45676,-1.317844 0.11976,-0.489288 0.21946,-0.98369 0.26487,-1.486125 0.0401,-0.436383 0.066,-0.873491 0.0724,-1.311762 0.009,-0.271633 0.0188,-0.543272 0.0258,-0.814969 0.003,-0.07194 -1.01438,-0.114662 -1.0174,-0.04272 z" /><path
       style="fill:#eff1f3;fill-opacity:1;stroke:none;stroke-width:1.465;stroke-dasharray:none;stroke-opacity:1"
       id="path1137"
       d="m 44.477945,16.577979 c -0.362154,-0.0696 -0.732327,-0.08605 -1.099275,-0.115597 -1.016127,-0.05937 -2.035995,-0.05744 -3.05316,-0.02633 -1.088376,0.02067 -2.149512,0.253252 -3.190946,0.551796 -1.130633,0.340793 -2.199227,0.84145 -3.224945,1.420599 -0.974725,0.569522 -1.840421,1.288579 -2.647559,2.072346 -0.736753,0.715628 -1.297694,1.568672 -1.77973,2.468654 -0.434676,0.841844 -0.713602,1.744383 -0.905468,2.668619 -0.127979,0.745144 -0.193527,1.509031 -0.07943,2.260797 0.02341,0.154223 0.06094,0.305967 0.09141,0.458949 0.203243,0.830117 0.641988,1.541663 1.213274,2.16554 0.606896,0.61286 1.244314,0.917178 2.063784,1.143133 1.089758,0.242797 2.149324,0.0064 3.175288,-0.340104 0.764755,-0.287721 1.463696,-0.713954 2.13668,-1.171323 0.820216,-0.562171 1.550921,-1.238036 2.260148,-1.931358 0.779629,-0.762667 1.501296,-1.581547 2.197152,-2.420483 0.725499,-0.870341 1.387211,-1.790716 2.039806,-2.71615 0.578474,-0.825166 1.112813,-1.679226 1.623533,-2.547566 0.432597,-0.725856 0.848575,-1.461614 1.248717,-2.205836 0.289557,-0.531133 0.560914,-1.071513 0.825429,-1.61543 0.09277,-0.218841 -3.002114,-1.530784 -3.094882,-1.311943 v 0 c -0.278394,0.505605 -0.565062,1.006488 -0.855496,1.505277 -0.399203,0.690312 -0.794326,1.383576 -1.235813,2.048215 -0.527084,0.789663 -1.064559,1.572285 -1.631656,2.333985 -0.622454,0.857238 -1.250611,1.710711 -1.920285,2.532025 -0.635878,0.762673 -1.278197,1.520798 -1.996511,2.208562 -0.567301,0.570475 -1.125919,1.15799 -1.775667,1.636616 -0.449641,0.300847 -0.924978,0.568574 -1.446128,0.724577 -0.231589,0.06397 -0.243355,0.07256 -0.475824,0.116258 -0.07138,0.01342 -0.142832,0.02739 -0.215064,0.03501 -0.05592,0.0059 -0.224797,0.0032 -0.168611,0.0055 0.673828,0.02776 0.874004,-0.06603 0.53933,0.06139 -0.242237,0.05954 -0.48519,0.03562 -0.694082,-0.109548 -0.262001,-0.203758 -0.403357,-0.396057 -0.505481,-0.71986 -0.117075,-0.511992 -0.03181,-1.036055 0.06595,-1.545422 0.140706,-0.643018 0.336487,-1.270567 0.667348,-1.844458 0.358342,-0.61489 0.789094,-1.178895 1.335808,-1.640589 0.671134,-0.576658 1.387705,-1.095468 2.170186,-1.513046 0.843701,-0.435831 1.722168,-0.803338 2.64032,-1.05241 0.825161,-0.214263 1.660326,-0.386733 2.51474,-0.425764 0.121271,-0.006 0.242477,-0.0135 0.363815,-0.01788 0.123645,-0.0045 0.493255,0.01085 0.371076,-0.0086 -0.160272,-0.02558 -0.325668,0.0096 -0.486797,-0.0098 -0.116856,-0.01411 0.235392,-0.0031 0.353052,-0.0063 0.114311,-0.0031 0.2286,-0.0072 0.342824,-0.01266 0.106952,-0.0051 0.213778,-0.01252 0.320667,-0.01878 0.386738,-0.0299 0.776152,-0.04775 1.158636,-0.115597 0.210357,0.05401 0.974188,-2.920906 0.763829,-2.974917 z" /><path
       style="fill:#eff1f3;fill-opacity:1;stroke:none;stroke-width:1.465;stroke-dasharray:none;stroke-opacity:1"
       id="path1137-6"
       d="m 98.027584,16.735056 c -0.362153,-0.0696 -0.732326,-0.08605 -1.099275,-0.115597 -1.016126,-0.05937 -2.035995,-0.05744 -3.053159,-0.02633 -1.088376,0.02067 -2.149513,0.253252 -3.190946,0.551796 -1.130633,0.340793 -2.199227,0.84145 -3.224945,1.420599 -0.974725,0.569522 -1.840421,1.288579 -2.647559,2.072346 -0.736753,0.715628 -1.297694,1.568672 -1.77973,2.468654 -0.434676,0.841844 -0.713602,1.744383 -0.905468,2.668619 -0.127979,0.745144 -0.193527,1.509031 -0.07943,2.260797 0.02341,0.154223 0.06094,0.305967 0.09141,0.458949 0.203243,0.830117 0.641988,1.541663 1.213274,2.16554 0.606896,0.61286 1.244314,0.917178 2.063784,1.143133 1.089758,0.242797 2.149324,0.0064 3.175288,-0.340104 0.764755,-0.287721 1.463696,-0.713954 2.13668,-1.171323 0.820216,-0.562171 1.550921,-1.238036 2.260148,-1.931358 0.779629,-0.762667 1.501296,-1.581547 2.197152,-2.420483 0.725499,-0.870341 1.387211,-1.790716 2.039806,-2.71615 0.578474,-0.825166 1.112813,-1.679226 1.623533,-2.547566 0.432597,-0.725856 0.848575,-1.461614 1.248713,-2.205836 0.28956,-0.531133 0.56092,-1.071513 0.82543,-1.61543 0.0928,-0.218841 -3.002111,-1.530784 -3.094879,-1.311943 v 0 c -0.278394,0.505605 -0.565062,1.006488 -0.855496,1.505277 -0.399203,0.690312 -0.794326,1.383576 -1.235813,2.048215 -0.527084,0.789663 -1.064559,1.572285 -1.631656,2.333985 -0.622454,0.857238 -1.250611,1.710711 -1.920285,2.532025 -0.635878,0.762673 -1.278197,1.520798 -1.996511,2.208562 -0.567301,0.570475 -1.125919,1.15799 -1.775667,1.636616 -0.449641,0.300847 -0.924978,0.568574 -1.446128,0.724577 -0.231589,0.06397 -0.243355,0.07256 -0.475824,0.116258 -0.07138,0.01342 -0.142832,0.02739 -0.215064,0.03501 -0.05592,0.0059 -0.224797,0.0032 -0.168611,0.0055 0.673828,0.02776 0.874004,-0.06603 0.53933,0.06139 -0.242237,0.05954 -0.48519,0.03562 -0.694082,-0.109548 -0.262001,-0.203758 -0.403357,-0.396057 -0.505481,-0.71986 -0.117075,-0.511992 -0.03181,-1.036055 0.06595,-1.545422 0.140706,-0.643018 0.336487,-1.270567 0.667348,-1.844458 0.358342,-0.61489 0.789094,-1.178895 1.335808,-1.640589 0.671134,-0.576658 1.387705,-1.095468 2.170186,-1.513046 0.843701,-0.435831 1.722168,-0.803338 2.64032,-1.05241 0.825161,-0.214263 1.660326,-0.386733 2.51474,-0.425764 0.121271,-0.006 0.242477,-0.0135 0.363815,-0.01788 0.123645,-0.0045 0.493255,0.01085 0.371076,-0.0086 -0.160272,-0.02558 -0.325668,0.0096 -0.486797,-0.0098 -0.116856,-0.01411 0.235392,-0.0031 0.353052,-0.0063 0.114311,-0.0031 0.2286,-0.0072 0.342824,-0.01266 0.106952,-0.0051 0.213778,-0.01252 0.320667,-0.01878 0.386738,-0.0299 0.776152,-0.04775 1.158636,-0.115597 0.210357,0.05401 0.974188,-2.920906 0.763829,-2.974917 z" /><path
       style="fill:#eff1f3;fill-opacity:1;stroke:none;stroke-width:1.465;stroke-dasharray:none;stroke-opacity:1"
       id="path1151"
       d="m 44.048764,16.035467 c -0.238739,0.430875 -0.403579,0.895649 -0.554257,1.363059 -0.208936,0.715844 -0.385588,1.440828 -0.563988,2.164784 -0.211633,0.861888 -0.412174,1.726294 -0.582356,2.597351 -0.19153,0.970482 -0.313947,1.95209 -0.407279,2.936272 -0.101515,0.971594 -0.0043,1.933995 0.232299,2.877111 0.21431,0.775747 0.621324,1.4586 1.126374,2.076653 0.443209,0.530728 1.015695,0.904142 1.629743,1.205947 0.679236,0.334534 1.419998,0.485167 2.166599,0.569923 1.239507,0.137068 2.454727,-0.06289 3.651292,-0.355457 1.027983,-0.258376 2.014247,-0.647861 2.985818,-1.06595 1.163166,-0.495292 2.252371,-1.127747 3.308688,-1.817513 1.198401,-0.77933 2.279545,-1.713564 3.314303,-2.694991 0.953122,-0.911191 1.82171,-1.902664 2.62559,-2.946451 0.636006,-0.829203 1.165159,-1.727625 1.58128,-2.684826 0.235082,-0.599665 0.426307,-1.236387 0.39891,-1.888275 -0.0058,-0.138986 -0.02936,-0.276663 -0.04404,-0.414994 -0.156017,-0.771097 -0.603014,-1.407405 -1.299075,-1.785083 -0.107905,-0.05855 -0.224451,-0.09955 -0.336677,-0.149317 -0.910275,-0.325481 -1.892377,-0.331161 -2.838114,-0.152157 -0.676529,0.142195 -1.308629,0.422438 -1.915393,0.746049 -0.638508,0.348051 -1.210233,0.793983 -1.750872,1.276581 -0.597074,0.54044 -1.069157,1.191475 -1.491491,1.87223 -0.381521,0.63312 -0.661281,1.318713 -0.912492,2.011695 -0.242938,0.680653 -0.397446,1.38649 -0.526817,2.095996 -0.115702,0.645976 -0.18148,1.298625 -0.189272,1.954558 0.0021,0.642696 0.144602,1.265883 0.340971,1.873684 0.194424,0.593439 0.524036,1.120534 0.896834,1.615868 0.392996,0.514427 0.902166,0.906158 1.441654,1.253686 0.515088,0.317619 1.083651,0.522536 1.658638,0.700413 0.591082,0.174072 1.202545,0.251089 1.816116,0.281916 1.020019,0.07348 1.978078,-0.120515 2.946609,-0.398449 0.771491,-0.228598 1.503596,-0.563335 2.217912,-0.929524 0.773039,-0.392459 1.485869,-0.886645 2.186194,-1.394256 0.787577,-0.578662 1.498941,-1.249183 2.205913,-1.921261 0.812427,-0.762628 1.55497,-1.594245 2.277391,-2.441253 0.723791,-0.857325 1.390652,-1.758532 2.030939,-2.679132 0.57895,-0.816571 1.115068,-1.661953 1.642028,-2.5126 0.426492,-0.696807 0.852201,-1.394128 1.264388,-2.099508 0.235342,-0.403487 0.116954,-0.203935 0.35505,-0.598726 0.107762,-0.213867 -2.916772,-1.737854 -3.024534,-1.523987 v 0 c -0.257861,0.403975 -0.127556,0.201016 -0.390951,0.608848 -0.422281,0.665588 -0.842135,1.332964 -1.294834,1.978556 -0.545635,0.790424 -1.091745,1.580699 -1.651574,2.361145 -0.616379,0.83184 -1.237158,1.66198 -1.91465,2.445616 -0.666496,0.774268 -1.351785,1.531913 -2.06529,2.263311 -0.582321,0.583884 -1.173435,1.165475 -1.840952,1.652873 -0.583356,0.411724 -1.180965,0.807345 -1.820267,1.127879 -0.551749,0.268608 -1.115981,0.515888 -1.710063,0.676191 -0.328038,0.08304 -0.652669,0.159657 -0.990595,0.189777 -0.06676,0.006 -0.267739,0.0096 -0.200744,0.01164 0.204083,0.0063 0.408363,7.94e-4 0.612545,0.0011 -0.403374,0.02222 -0.80599,0.03932 -1.206704,-0.03039 -0.355365,-0.05435 -0.701106,-0.158935 -1.034185,-0.293777 -0.276013,-0.119515 -0.540036,-0.273164 -0.761659,-0.478465 -0.198588,-0.221385 -0.386021,-0.460526 -0.517477,-0.728406 -0.106638,-0.307377 -0.169955,-0.628772 -0.172175,-0.955128 0.01841,-0.499149 0.09957,-0.991636 0.20207,-1.480018 0.114131,-0.559915 0.236413,-1.120156 0.424492,-1.660714 0.179544,-0.491589 0.379281,-0.977335 0.678405,-1.410475 0.312394,-0.447355 0.650047,-0.877349 1.054746,-1.246183 0.370803,-0.319334 0.767704,-0.610038 1.208265,-0.826899 0.354946,-0.164578 0.723206,-0.300656 1.116959,-0.329841 0.484307,-0.02638 -0.144565,0.01053 -0.50465,-0.0043 -0.0532,-0.0022 0.104682,-0.02015 0.157599,-0.02609 0.100618,-0.01129 0.201798,-0.0169 0.30263,-0.02609 0.04291,-0.0039 0.08599,-0.0056 0.128985,-0.0084 0.0276,-0.0069 0.06016,-0.0034 0.08281,-0.02064 0.06582,-0.05002 -0.113683,-0.416656 -0.07768,-0.541238 0.0013,-0.01414 0.0063,-0.02835 0.0043,-0.04243 -0.0013,-0.0086 -0.0041,0.01691 -0.0068,0.02518 -0.0104,0.03199 -0.02021,0.06421 -0.03248,0.09553 -0.07778,0.198619 -0.181134,0.385884 -0.28711,0.570501 -0.436565,0.711893 -0.935739,1.382439 -1.476348,2.018927 -0.774026,0.891925 -1.597237,1.739052 -2.463935,2.541622 -0.920465,0.844053 -1.882132,1.643168 -2.926382,2.331624 -0.8974,0.594095 -1.800304,1.193944 -2.801355,1.601791 -0.81506,0.352473 -1.649495,0.665533 -2.513632,0.876067 -0.358621,0.08533 -0.715087,0.162478 -1.081572,0.206584 -0.108108,0.01302 -0.432196,0.01087 -0.325188,0.03102 0.183927,0.03463 0.375832,-0.01151 0.561321,0.01344 0.09517,0.01281 -0.19141,0.01561 -0.287115,0.02344 -0.4547,0.01045 -0.908175,0.0095 -1.359699,-0.0548 -0.25322,-0.0728 -0.504391,-0.154948 -0.714854,-0.319997 -0.246581,-0.264949 -0.431459,-0.571339 -0.524796,-0.924272 -0.141261,-0.618688 -0.144878,-1.251805 -0.06142,-1.880358 0.115361,-0.908985 0.245301,-1.816363 0.390221,-2.72107 0.144008,-0.829671 0.286732,-1.66014 0.476406,-2.480898 0.149815,-0.687225 0.298008,-1.374815 0.452062,-2.061101 0.09053,-0.392716 0.20215,-0.794022 0.232032,-1.194766 0.06548,-0.207442 -2.8682,-1.133427 -2.933679,-0.925984 z" /><path
       style="fill:#eff1f3;fill-opacity:1;stroke:none;stroke-width:1.465;stroke-dasharray:none;stroke-opacity:1"
       id="path1199"
       d="m 78.397747,27.948868 c 0.219141,-0.199663 0.405355,-0.431234 0.612246,-0.64343 0.40717,-0.397412 0.817986,-0.790071 1.24183,-1.169756 0.533077,-0.478908 1.086688,-0.934264 1.638519,-1.391258 0.520076,-0.434523 1.057386,-0.847495 1.615591,-1.231757 0.520978,-0.360339 1.079587,-0.658575 1.631585,-0.967271 0.50673,-0.277524 1.015002,-0.550981 1.531099,-0.810671 0.430141,-0.21777 0.886803,-0.373435 1.342993,-0.526007 0.455935,-0.161781 0.915453,-0.313138 1.374687,-0.465202 0.387499,-0.122561 0.77002,-0.260536 1.160394,-0.37388 0.328851,-0.08503 0.6564,-0.176444 0.987671,-0.251796 0.246936,-0.04967 0.495604,-0.08965 0.744826,-0.125779 0.20841,-0.08509 -0.995003,-3.032446 -1.203412,-2.947352 v 0 c -0.311605,0.05572 -0.62247,0.116572 -0.928545,0.198046 -0.377878,0.09505 -0.758425,0.179729 -1.130149,0.297903 -0.402616,0.123698 -0.807561,0.239237 -1.212292,0.355754 -0.503631,0.150296 -1.006517,0.303834 -1.498923,0.488403 -0.537379,0.20742 -1.065045,0.438213 -1.586991,0.681869 -0.572043,0.268697 -1.13709,0.552447 -1.693077,0.853034 -0.641906,0.354544 -1.272876,0.730274 -1.869363,1.157911 -0.60901,0.439042 -1.210443,0.888498 -1.790584,1.365409 -0.609785,0.503262 -1.213112,1.016179 -1.772319,1.575949 -0.464206,0.482316 -0.918139,0.976726 -1.300676,1.527897 -0.190318,0.272988 -0.389618,0.542072 -0.547325,0.835788 -0.110747,0.187541 2.541468,1.753735 2.652215,1.566196 z" /><path
       style="fill:#eff1f3;fill-opacity:1;stroke:none;stroke-width:1.465;stroke-dasharray:none;stroke-opacity:1"
       id="path1211"
       d="m 97.013021,16.713518 c -0.223658,0.320277 -0.367864,0.690187 -0.510559,1.051617 -0.253553,0.644838 -0.440277,1.312697 -0.640691,1.975179 -0.245769,0.828142 -0.427384,1.673217 -0.592169,2.520584 -0.165767,0.879858 -0.263419,1.769886 -0.308324,2.663538 -0.03576,0.755643 0.02196,1.507746 0.162464,2.24987 0.116295,0.59409 0.351523,1.149956 0.629555,1.684097 0.257477,0.486891 0.59816,0.918675 0.972513,1.31967 0.412287,0.426879 0.925931,0.716597 1.453954,0.973577 0.501537,0.219133 1.148737,0.437885 1.699284,0.452678 0.407422,0.01095 0.815122,-0.006 1.222682,-0.009 0.86601,-0.09097 1.66861,-0.409292 2.44131,-0.793366 0.88223,-0.467072 1.65797,-1.097651 2.39428,-1.765022 0.91947,-0.834935 1.69108,-1.810695 2.43767,-2.798257 0.97072,-1.279259 1.77785,-2.667943 2.51511,-4.091287 0.78543,-1.541163 1.3699,-3.170582 1.87969,-4.82004 0.4137,-1.344565 0.66445,-2.728285 0.78457,-4.12791 0.0919,-1.062532 -0.0512,-2.036417 -0.39891,-3.037428 -0.30006,-0.7490289 -0.77869,-1.408792 -1.46559,-1.8471555 -0.12482,-0.07966 -0.26046,-0.1409428 -0.39069,-0.2114143 -0.78037,-0.3558757 -1.53085,-0.3587387 -2.39007,-0.3034969 -0.22496,0.014462 -0.57389,0.1541817 -0.77693,0.225366 -0.8012,0.3246628 -1.39919,0.9138285 -1.91851,1.5851542 -0.43055,0.5892945 -0.73715,1.2485775 -0.96119,1.9398625 -0.20899,0.666557 -0.23852,1.353965 -0.15438,2.042211 0.10376,0.651791 0.37859,1.251538 0.81184,1.750656 0.0929,0.107062 0.19924,0.201732 0.29887,0.302598 0.61471,0.562444 1.37487,0.887652 2.13687,1.194352 0.81669,0.337756 1.66329,0.58798 2.51609,0.814824 0.64894,0.149787 1.24775,0.428652 1.81745,0.766527 0.38415,0.220463 0.68163,0.516798 0.90798,0.89354 0.16948,0.290908 0.1531,0.515727 0.0973,0.834347 -0.11496,0.464102 -0.33316,0.891892 -0.55399,1.312752 -0.30231,0.558954 -0.59721,1.121729 -0.87804,1.691796 -0.3015,0.613115 -0.52696,1.257593 -0.71339,1.913655 -0.17638,0.623099 -0.28508,1.259979 -0.34064,1.904328 -0.0699,0.712488 0.0629,1.405866 0.28812,2.078 0.17888,0.458703 0.40736,0.899541 0.71484,1.286338 0.22477,0.282755 0.35961,0.385382 0.63309,0.637482 0.88098,0.688263 1.79893,0.927732 2.88322,1.089573 0.48122,-5.3e-4 0.96292,0.01982 1.44366,-0.0019 0.20519,-0.0092 0.40778,-0.0519 0.60951,-0.09055 0.84476,-0.161832 1.61542,-0.469193 2.38964,-0.833842 1.23409,-0.618376 2.30822,-1.481206 3.31614,-2.413169 1.07482,-1.006044 1.99269,-2.157521 2.88488,-3.323571 0.8048,-1.059003 1.50765,-2.188304 2.19281,-3.326593 0.11853,-0.228641 -3.11495,-1.90491 -3.23348,-1.676269 v 0 c -0.69783,1.025162 -1.40486,2.044884 -2.16432,3.025789 -0.7972,1.020277 -1.61893,2.025297 -2.55122,2.926859 -0.76264,0.711926 -1.55501,1.407965 -2.51536,1.842464 -0.50091,0.220679 -1.01098,0.394322 -1.55597,0.470694 -0.11461,0.01606 -0.4554,-0.0058 -0.34577,0.03124 0.16747,0.05663 0.35299,0.02058 0.52948,0.03088 -0.0987,0.01506 -0.19657,0.03846 -0.29624,0.04514 -0.42658,0.02859 -0.8294,-0.09993 -1.24545,-0.161073 -0.29035,-0.03961 -0.43626,-0.264851 -0.56201,-0.511458 -0.12375,-0.264202 -0.17803,-0.549466 -0.13934,-0.840595 0.0622,-0.473601 0.16344,-0.941078 0.29759,-1.39964 0.14996,-0.490923 0.31817,-0.976879 0.56488,-1.429198 0.29264,-0.5661 0.61804,-1.114598 0.90455,-1.684028 0.3529,-0.72594 0.65879,-1.478541 0.74892,-2.288119 0.0721,-0.869511 0.0228,-1.65031 -0.34385,-2.457897 -0.3956,-0.801733 -0.90254,-1.529014 -1.63002,-2.067634 -0.77688,-0.57796 -1.61106,-1.071952 -2.54271,-1.3587 -0.78973,-0.234588 -1.59146,-0.422409 -2.38146,-0.655568 -0.49409,-0.148583 -0.98523,-0.313031 -1.46442,-0.50375 -0.0371,-0.01047 -0.0729,-0.0279 -0.11122,-0.0314 -0.0192,-0.0017 -0.0363,0.01748 -0.0555,0.01619 -0.0755,-0.0051 -0.13243,-0.06967 -0.14225,-0.136258 -0.0346,-0.279689 0.0177,-0.551749 0.11121,-0.816834 0.14033,-0.378874 0.33212,-0.736138 0.58612,-1.051906 0.17617,-0.205307 0.3698,-0.425569 0.65187,-0.46862 0.29505,7.67e-4 0.76012,0.09449 -0.50011,-0.0032 -0.0713,-0.0055 0.10047,-0.03103 0.21983,-0.05815 0.0303,-0.0069 0.0603,-0.01519 0.0904,-0.02279 0.0394,-0.0042 0.17548,-0.04812 0.21453,-0.03122 0.10071,0.0436 0.17733,0.161244 0.2286,0.250137 0.17441,0.572787 0.16704,1.159098 0.059,1.747139 -0.22461,1.190317 -0.54211,2.359573 -0.939,3.504382 -0.51398,1.472052 -1.07476,2.928642 -1.76112,4.330374 -0.63757,1.277723 -1.29487,2.547105 -2.10275,3.728059 -0.5874,0.839457 -1.18549,1.679614 -1.92047,2.3987 -0.53429,0.479951 -1.08026,0.957874 -1.72913,1.2789 -0.43263,0.203124 -0.87162,0.373796 -1.35954,0.355016 0.21012,0.0047 0.42132,-0.0075 0.63038,0.01418 0.0621,0.0065 -0.12245,0.02524 -0.18449,0.03216 -0.22868,0.02545 -0.45841,-0.01053 -0.686855,-0.0199 -0.243096,-0.0544 -0.470093,-0.15418 -0.690353,-0.269584 -0.222605,-0.153276 -0.377294,-0.378843 -0.523799,-0.602363 -0.151122,-0.266063 -0.288131,-0.536261 -0.327056,-0.844651 -0.07012,-0.525525 -0.0397,-1.055941 0.0024,-1.582975 0.07513,-0.784313 0.186245,-1.563951 0.315336,-2.341176 0.131138,-0.771737 0.302236,-1.534599 0.49172,-2.294064 0.146198,-0.612812 0.300318,-1.223894 0.456369,-1.834182 0.08118,-0.292097 0.15516,-0.586007 0.243448,-0.876059 0.07561,-0.203832 -2.807009,-1.27308 -2.882616,-1.069248 z" /><path
       style="fill:#eff1f3;fill-opacity:1;stroke-width:1.55123"
       id="path370"
       d="m 73.569165,16.409535 c -0.103791,0.337088 -0.147602,0.686332 -0.185935,1.034239 -0.05598,0.475578 -0.08451,0.953033 -0.08702,1.43134 0.0056,0.577599 0.07142,1.153081 0.171406,1.722487 0.09751,0.582519 0.23158,1.157947 0.376823,1.731334 0.153147,0.588238 0.338846,1.168167 0.520382,1.749056 0.153624,0.488409 0.269045,0.986265 0.375944,1.485175 0.08485,0.402915 0.153253,0.808838 0.15982,1.220008 0.0071,0.290413 -0.09482,0.56498 -0.204458,0.83247 -0.09187,0.232599 -0.241112,0.430995 -0.417991,0.612531 -0.135636,0.117675 -0.316096,0.16377 -0.48771,0.216156 -0.236601,0.07088 -0.479803,0.08872 -0.726487,0.07993 -0.313876,-0.04977 -0.908034,-0.02758 0.463927,-0.03936 0.401716,-0.0035 -0.357066,0.0033 -0.425435,2.72e-4 -0.20941,-0.0105 -0.4171,-0.04967 -0.611849,-0.122776 -0.193013,-0.08633 -0.336566,-0.229287 -0.471266,-0.380851 -0.156998,-0.17961 -0.267482,-0.387824 -0.367393,-0.598787 -0.0651,-0.151898 -0.03395,-0.07549 -0.09345,-0.229218 -0.06526,-0.222227 -3.418119,0.642895 -3.352854,0.865119 v 0 c 0.08994,0.269386 0.0424,0.134373 0.142815,0.404977 0.183646,0.445641 0.397809,0.881144 0.697076,1.270546 0.325284,0.414165 0.677634,0.811529 1.12785,1.112994 0.475375,0.315204 0.98468,0.57217 1.5518,0.711779 0.858299,0.196823 1.757713,0.240024 2.627931,0.06873 0.53821,-0.118824 1.065767,-0.278104 1.548011,-0.537292 0.506147,-0.28124 0.969869,-0.618208 1.328929,-1.060803 0.352615,-0.436834 0.656486,-0.906339 0.859259,-1.422585 0.219025,-0.589019 0.375423,-1.194731 0.367142,-1.823391 -0.0082,-0.56747 -0.05746,-1.132894 -0.165705,-1.691929 -0.105267,-0.584542 -0.231483,-1.165494 -0.396244,-1.738137 -0.159145,-0.569094 -0.331893,-1.134645 -0.508322,-1.699229 -0.14626,-0.487247 -0.277883,-0.978405 -0.364118,-1.478544 -0.07644,-0.430285 -0.149319,-0.862346 -0.167836,-1.298906 -0.01777,-0.388035 0.0021,-0.775585 0.02576,-1.163094 0.01777,-0.268956 0.04109,-0.540275 0.02182,-0.809381 0.03432,-0.220881 -3.298263,-0.675878 -3.332588,-0.454996 z" /></g></svg>
